<svg width="50" height="40" viewBox="0 0 50 40" fill="none" xmlns="http://www.w3.org/2000/svg">
<path d="M10.3852 0C7.5322 0 5.42119 2.50683 5.51568 5.2255C5.60636 7.83739 5.48856 11.2201 4.64025 13.9788C3.78941 16.7455 2.35042 18.4981 0 18.7231V21.2636C2.35042 21.4886 3.78941 23.2412 4.64025 26.0079C5.48856 28.7666 5.60636 32.1493 5.51568 34.7612C5.42119 37.4795 7.5322 39.9867 10.3856 39.9867H39.6186C42.4716 39.9867 44.5822 37.4799 44.4877 34.7612C44.397 32.1493 44.5148 28.7666 45.3631 26.0079C46.2144 23.2412 47.6496 21.4886 50 21.2636V18.7231C47.6496 18.4981 46.2144 16.7455 45.3631 13.9788C44.5148 11.2205 44.397 7.83739 44.4877 5.2255C44.5822 2.50725 42.4716 0 39.6186 0H10.3847H10.3852ZM33.8983 24.6144C33.8983 28.3578 31.1169 30.6281 26.5013 30.6281H18.6441C18.176 30.6281 17.7966 30.2472 17.7966 29.7773V10.2094C17.7966 9.7395 18.176 9.35859 18.6441 9.35859H26.4564C30.3051 9.35859 32.8309 11.4515 32.8309 14.6649C32.8309 16.9203 31.1318 18.9397 28.9669 19.2932V19.411C31.914 19.7356 33.8983 21.7842 33.8983 24.6144ZM25.6445 12.0556H21.1644V18.4083H24.9377C27.8547 18.4083 29.4631 17.2292 29.4631 15.1214C29.4631 13.1463 28.0801 12.0556 25.6445 12.0556ZM21.1644 20.9292V27.9303H25.8093C28.8462 27.9303 30.4551 26.7069 30.4551 24.4076C30.4551 22.108 28.8013 20.9288 25.614 20.9288H21.1644V20.9292Z" fill="#7E13F8"/>
</svg>
