<svg width="50" height="50" viewBox="0 0 50 50" fill="none" xmlns="http://www.w3.org/2000/svg">
<g clip-path="url(#clip0_446_38)">
<path d="M0 0H50V50H0" fill="white"/>
<path d="M22.7539 42.4805L10.0586 35.3516V13.2812M22.7539 42.4805V35.3516M22.7539 42.4805L35.6445 35.3516V28.0273M10.0586 13.2812L16.3086 9.57031L22.7539 13.3789M10.0586 13.2812L16.3086 17.0898M22.7539 13.3789L16.3086 17.0898M22.7539 13.3789V27.9297M16.3086 17.0898V31.7383M16.3086 31.7383L22.7539 35.3516M16.3086 31.7383L29.0039 24.3164M22.7539 35.3516L35.6445 28.0273M35.6445 28.0273L29.0039 24.3164M35.6445 28.0273L42.0898 24.3164V16.6992M35.6445 28.0273V20.5078M29.0039 24.3164V16.6992M29.0039 16.6992L35.6445 12.9883L42.0898 16.6992M29.0039 16.6992L35.6445 20.5078M42.0898 16.6992L35.6445 20.5078" stroke="#FF2D20" stroke-linejoin="round"/>
</g>
<defs>
<clipPath id="clip0_446_38">
<rect width="50" height="50" fill="white"/>
</clipPath>
</defs>
</svg>
