<svg width="50" height="50" viewBox="0 0 50 50" fill="none" xmlns="http://www.w3.org/2000/svg">
<g clip-path="url(#clip0_446_73)">
<path d="M0 0H50V50H0" fill="white"/>
<path d="M5.37109 27.832V33.3008H4.00391V27.832C4.00391 27.3763 4.19922 27.0833 4.58984 26.9531C4.98047 26.8229 5.37109 26.7904 5.76172 26.8555C6.15234 26.9206 6.47786 27.181 6.73828 27.6367L8.78906 32.3242L10.8398 27.6367C11.1003 27.181 11.4258 26.9206 11.8164 26.8555C12.207 26.7904 12.5977 26.8229 12.9883 26.9531C13.3789 27.0833 13.5742 27.3763 13.5742 27.832V33.3008H12.207V27.832L10.0586 32.6172C9.86328 33.138 9.4401 33.3984 8.78906 33.3984C8.13802 33.3984 7.71484 33.138 7.51953 32.6172M14.7461 28.9062V32.0312C14.7461 32.6172 15.5273 33.3008 17.1875 33.3008H19.9219V33.7891C19.9219 34.1797 19.5638 34.375 18.8477 34.375H14.7461V35.2539H18.75C20.4427 35.2539 21.2891 34.7656 21.2891 33.7891V28.9062H19.9219V32.4219H16.8945C16.3737 32.4219 16.1133 32.2591 16.1133 31.9336V28.9062M33.3008 16.2109C33.9844 16.0156 34.4727 16.7969 33.8867 17.1875L33.3008 16.2109ZM37.207 25.9766C36.2305 25.0651 35.3516 23.6654 34.5703 21.7773C34.1146 22.1029 33.8542 22.819 33.7891 23.9258C33.6914 24.6094 32.1289 22.5586 33.2031 20.0195C33.3333 19.6289 33.3333 19.3685 33.2031 19.2383C31.8359 17.5781 32.5195 16.9922 31.1523 15.332C29.7852 13.6719 31.4453 13.7695 33.0078 15.1367C35.7422 14.9414 38.3789 17.8711 39.2578 19.8242C40.1367 21.7773 40.7227 23.4375 41.3086 23.5351C42.6107 23.9258 43.6849 24.5443 44.5312 25.3906C43.4896 25.3906 42.6758 25.5534 42.0898 25.8789C42.5781 27.5391 44.4336 27.5391 45.8008 28.9062C44.8242 27.0508 43.2617 26.8555 42.9688 26.1719C44.2383 25.7812 44.3359 25.9766 45.3125 25.6836C44.5312 24.5768 43.2617 23.6654 41.5039 22.9492C41.5039 22.9492 40.918 21.9727 39.8438 19.5312C38.7695 17.0898 35.8398 14.5508 33.3008 14.5508C30.6641 12.5 29.2969 14.0625 30.7617 15.625C32.2266 17.1875 31.1523 17.3828 32.8125 19.5312C31.25 24.1211 34.4727 26.0742 34.4727 23.5351L34.5703 22.9492C35.4492 24.9023 35.9375 24.707 36.9141 25.7812" fill="#005C87"/>
<path d="M22.3633 32.4219H26.0742C26.7904 32.4219 27.1484 32.2266 27.1484 31.8359V31.0547C27.1484 30.7292 26.7904 30.5664 26.0742 30.5664H24.6094C23.5352 30.5664 22.3633 30.0781 22.3633 29.1992V28.418C22.3633 27.5391 23.0469 26.9531 24.4141 26.9531H28.6133V27.832H24.707C24.1211 27.832 23.8281 28.0273 23.8281 28.418V29.0039C23.8281 29.4596 24.1211 29.6875 24.707 29.6875H26.5625C27.6367 29.6875 28.5156 30.2734 28.5156 30.8594V31.9336C28.5156 32.8125 27.4414 33.3008 26.4648 33.3008H22.3633M33.2031 32.4219H32.0312C31.3151 32.4219 30.957 32.1615 30.957 31.6406V28.6133C30.957 28.0924 31.3477 27.832 32.1289 27.832H33.8867C34.668 27.832 35.0586 28.0924 35.0586 28.6133V31.7383C35.0586 31.9987 34.9284 32.194 34.668 32.3242L33.5938 31.3477H32.0312M35.4492 33.0078C36.0352 32.8776 36.3281 32.4544 36.3281 31.7383V28.5156C36.3281 27.474 35.5143 26.9531 33.8867 26.9531H31.8359C30.2734 26.9531 29.4922 27.4414 29.4922 28.418V31.7383C29.4922 32.7799 30.2409 33.3008 31.7383 33.3008H34.1797L35.2539 34.2773H36.9141M37.207 26.9531H38.5742V31.7383C38.5742 32.194 38.9648 32.4219 39.7461 32.4219H43.3594V33.3008H39.6484C38.0208 33.3008 37.207 32.7474 37.207 31.6406" fill="#E4830F"/>
</g>
<defs>
<clipPath id="clip0_446_73">
<rect width="50" height="50" fill="white"/>
</clipPath>
</defs>
</svg>
